<svg xmlns="http://www.w3.org/2000/svg" viewBox="0 0 512 512"><path d="M378.26 201.487a6.013 6.013 0 0 0-.093-.81 6.178 6.178 0 0 0-.104-.486 6.344 6.344 0 0 0-.274-.78c-.061-.142-.11-.286-.18-.421a6.143 6.143 0 0 0-.492-.78c-.074-.102-.132-.212-.212-.31a6.086 6.086 0 0 0-.891-.889c-.019-.015-.03-.033-.05-.049 0 0-.002 0-.002-.003h-.003l-14.927-11.809a6.138 6.138 0 0 0-8.63 1.008 6.139 6.139 0 0 0 1.008 8.63l4.943 3.91-117.738 27.544-87.3-69.059 9.932-2.608a6.147 6.147 0 0 0 4.384-7.502 6.15 6.15 0 0 0-7.502-4.384l-21.836 5.733a6.168 6.168 0 0 0-1.038.387c-.025.012-.052.012-.077.024-.003.003-.01.006-.012.01-.476.23-.897.531-1.287.866-.099.083-.188.175-.28.264a6.095 6.095 0 0 0-.814.968c-.055.08-.117.147-.166.23a6.29 6.29 0 0 0-.614 1.367c-.034.11-.056.224-.083.338a6.196 6.196 0 0 0-.181 1.263c-.004.076-.031.15-.031.227v62.663c0 1.75.746 3.416 2.052 4.583l99.278 88.633c.086.077.187.132.28.206.082.068.168.13.254.19.473.339.98.618 1.52.809.072.024.142.036.216.058.58.181 1.183.295 1.79.298.01 0 .02.003.029.003l.03-.003c.476 0 .956-.074 1.426-.19.046-.01.092-.007.138-.019l83.085-22.272a6.145 6.145 0 0 0 4.344-7.526c-.879-3.275-4.242-5.232-7.526-4.344l-75.35 20.198v-59.882l120.732-28.244v55.763l-23.27 6.236a6.142 6.142 0 0 0-4.344 7.523 6.142 6.142 0 0 0 5.93 4.556c.524 0 1.062-.068 1.593-.212l27.824-7.456a6.138 6.138 0 0 0 4.552-5.935V201.78c0-.101-.027-.193-.034-.292zM232.984 291.94l-86.99-77.66v-47.216l86.99 68.812v56.064z"/><path d="M171.191 161.49c.39.304 9.745 7.49 26.352 8.663a53.91 53.91 0 0 0 3.739.132c14.7 0 24.357-6.14 24.794-6.423a6.123 6.123 0 0 0 1.818-8.448c-1.812-2.845-5.603-3.68-8.466-1.884-.086.053-8.528 5.244-21.019 4.369-8.365-.59-14.257-3.06-17.289-4.667v-10.334c4.316 1.533 10.104 2.691 17.735 2.691 19.018 0 26.253-8.798 27.015-9.8a6.137 6.137 0 0 0 1.158-4.792c-.117-.651-3.121-15.956-28.173-15.956-3.392 0-6.144 2.753-6.144 6.144s2.752 6.144 6.144 6.144c7.677 0 11.747 1.711 13.87 3.278-2.679 1.306-7.115 2.694-13.87 2.694-14.304 0-18.85-4.804-18.88-4.804v.003a6.146 6.146 0 0 0-11.146 3.572v24.58a6.166 6.166 0 0 0 2.362 4.838zM224.067 170.383v24.583c0 1.889.869 3.674 2.359 4.838.39.307 9.75 7.493 26.358 8.663 1.28.089 2.522.132 3.735.132 14.7 0 24.358-6.138 24.791-6.42a6.126 6.126 0 0 0 1.822-8.448c-1.816-2.848-5.606-3.68-8.467-1.887-.08.056-8.49 5.266-21.018 4.366-8.365-.59-14.257-3.06-17.29-4.667v-10.337c4.317 1.533 10.108 2.694 17.735 2.694 19.019 0 26.25-8.798 27.012-9.8a6.132 6.132 0 0 0 1.159-4.789c-.117-.651-3.119-15.956-28.17-15.956-3.392 0-6.145 2.753-6.145 6.144s2.753 6.144 6.144 6.144c7.677 0 11.748 1.711 13.87 3.275-2.681 1.321-7.099 2.694-13.87 2.694-14.303 0-18.853-4.804-18.883-4.804v.003a6.14 6.14 0 0 0-6.872-2.28 6.15 6.15 0 0 0-4.27 5.852z"/><path d="M237.964 155.791a6.146 6.146 0 0 0 6.144-6.144v-13.756c4.316 1.533 10.104 2.691 17.732 2.691 6.734 0 11.965-1.109 15.98-2.58v13.642c0 3.392 2.753 6.144 6.144 6.144s6.144-2.752 6.144-6.144v-24.579c0-.203-.04-.393-.061-.59-.015-.16-.006-.322-.034-.482a3.92 3.92 0 0 0-.027-.126c-.004-.028-.01-.052-.016-.08-.393-1.818-4.2-15.75-28.13-15.75-3.392 0-6.144 2.753-6.144 6.144s2.752 6.144 6.144 6.144c7.677 0 11.75 1.711 13.873 3.278-2.685 1.32-7.1 2.694-13.873 2.694-14.3 0-18.85-4.805-18.88-4.805v.004a6.136 6.136 0 0 0-6.873-2.277 6.143 6.143 0 0 0-4.27 5.85v24.578a6.15 6.15 0 0 0 6.147 6.144zM287.058 163.382v24.582c0 1.89.87 3.675 2.356 4.839.39.304 9.748 7.492 26.358 8.663a53.69 53.69 0 0 0 3.735.132c14.7 0 24.358-6.141 24.795-6.424 2.835-1.837 3.637-5.603 1.818-8.448-1.815-2.844-5.603-3.68-8.466-1.883-.083.052-8.507 5.247-21.019 4.366-8.365-.59-14.257-3.06-17.29-4.667v-10.337c4.317 1.533 10.105 2.691 17.736 2.691 19.018 0 26.253-8.798 27.015-9.8a6.132 6.132 0 0 0 1.158-4.789c-.117-.651-3.118-15.956-28.173-15.956-3.392 0-6.144 2.753-6.144 6.144s2.752 6.144 6.144 6.144c7.677 0 11.747 1.711 13.87 3.275-2.68 1.305-7.115 2.694-13.87 2.694-14.304 0-18.85-4.805-18.88-4.805v.003a6.15 6.15 0 0 0-6.876-2.279 6.148 6.148 0 0 0-4.267 5.855z"/></svg>