<svg
  xmlns="http://www.w3.org/2000/svg"
  viewBox="0 0 512 512"
  fill="none"
>
  <style>
    :root {
      fill: #000;
    }
    @media (prefers-color-scheme: dark) {
      :root {
        fill: #fff;
      }
    }
  </style>
  <path d="M272.52 464.79c-9.49 0-19.24-.34-28.96-1.02-128.7-9.07-200.67-64.24-203.67-66.58-9.01-7.05-14.18-17.67-14.18-29.13V172.09c0-16.18 10.36-30.41 25.78-35.39 2.73-.87 5.33-1.3 7.89-1.3 9.69 0 19.15 6.35 32.26 15.13 1.18.79 2.38 1.59 3.6 2.41 7.59 7 49.91 40.85 157.88 40.85 58.76 0 94.66-7.04 116.4-22.83 3.41-2.48 5.44-6.48 5.41-10.71-.03-4.23-2.1-8.21-5.55-10.65-25.69-18.18-64.8-27.4-116.26-27.4-9.94 0-19.28-3.9-26.29-10.98-7-7.08-10.8-16.45-10.7-26.4.21-20.18 17.15-36.6 37.77-36.6 188.93.34 211.21 112.58 212.07 117.36 1.8 10.11-.74 20.61-6.98 28.81-2.6 3.42-17.22 21.37-49.3 38.79-42.31 22.98-94.99 34.62-156.58 34.62s-137.52-20.85-138.31-21.06l-15.09-4.02v105.25l6.38 3.38c23.2 12.29 72.58 33.65 142.67 38.58 7.84.55 15.79.83 23.62.83h.01c91.29 0 150.7-37.12 151.29-37.5 5.89-3.7 12.73-5.67 19.73-5.67 12.75 0 24.43 6.37 31.24 17.03 10.91 17.08 6.01 39.89-10.91 50.85-3.11 2.02-77.32 49.3-191.23 49.3Z" />
</svg>
